<?xml version="1.0" standalone="no"?>
<!DOCTYPE svg PUBLIC "-//W3C//DTD SVG 20010904//EN"
 "http://www.w3.org/TR/2001/REC-SVG-20010904/DTD/svg10.dtd">
<svg version="1.0" xmlns="http://www.w3.org/2000/svg"
 width="512.000000pt" height="512.000000pt" viewBox="0 0 512.000000 512.000000"
 preserveAspectRatio="xMidYMid meet">
<metadata>
Created by potrace 1.14, written by Peter Selinger 2001-2017
</metadata>
<g transform="translate(0.000000,512.000000) scale(0.100000,-0.100000)"
fill="#000000" stroke="none">
<path d="M2260 5105 c-578 -71 -1093 -321 -1500 -725 -201 -200 -344 -392
-469 -630 -270 -516 -351 -1067 -246 -1680 3 -19 21 -94 40 -167 167 -639 587
-1197 1161 -1541 107 -64 324 -172 346 -172 8 0 18 -4 24 -9 5 -5 50 -23 99
-39 320 -108 537 -141 885 -137 251 3 349 15 580 71 266 65 479 156 745 317
134 81 318 229 450 362 409 411 669 953 732 1530 10 89 10 427 1 525 -59 593
-319 1138 -745 1565 -150 150 -309 273 -498 387 -66 39 -298 158 -310 158 -4
0 -21 6 -38 14 -99 45 -376 126 -487 141 -24 4 -47 8 -50 10 -3 1 -30 6 -61 9
-31 4 -67 9 -80 12 -54 13 -477 12 -579 -1z m510 -1356 c525 -105 898 -488
985 -1009 3 -19 8 -78 9 -130 17 -466 -224 -889 -635 -1114 -106 -58 -222 -97
-394 -132 -64 -13 -292 -12 -370 2 -333 58 -621 242 -805 516 -147 218 -210
436 -205 698 4 203 43 358 133 534 183 357 542 603 947 649 91 10 248 4 335
-14z"/>
</g>
</svg>
